<?xml version="1.0" standalone="no"?>
<!DOCTYPE svg PUBLIC "-//W3C//DTD SVG 20010904//EN"
 "http://www.w3.org/TR/2001/REC-SVG-20010904/DTD/svg10.dtd">
<svg version="1.0" xmlns="http://www.w3.org/2000/svg"
 width="602.000000pt" height="400.000000pt" viewBox="0 0 602.000000 400.000000"
 preserveAspectRatio="xMidYMid meet">

<g transform="translate(0.000000,400.000000) scale(0.100000,-0.100000)"
fill="#000000" stroke="none">
<path d="M943 2765 c-191 -35 -356 -124 -479 -259 -74 -81 -119 -155 -157
-259 -27 -73 -30 -98 -34 -227 -6 -180 9 -259 72 -387 82 -166 245 -313 428
-383 164 -64 28 -61 2262 -58 l2030 3 90 28 c261 82 448 252 538 492 28 73 31
93 35 232 5 187 -10 264 -76 396 -37 75 -62 108 -136 182 -121 121 -232 184
-407 232 -60 16 -198 18 -2079 19 -1623 2 -2029 0 -2087 -11z m4171 -38 c170
-51 264 -105 376 -217 94 -94 138 -161 178 -272 23 -65 27 -91 30 -229 4 -183
-6 -240 -68 -364 -89 -182 -248 -316 -460 -388 l-95 -32 -2075 0 -2075 0 -95
33 c-135 47 -237 111 -328 207 -88 93 -133 163 -169 267 -22 61 -27 96 -31
213 -5 156 4 222 44 322 94 239 335 427 604 472 32 5 899 8 2080 7 1911 -1
2028 -2 2084 -19z"/>
<path d="M1010 2439 c-162 -38 -305 -73 -317 -79 -15 -6 -23 -18 -23 -34 0
-13 62 -129 138 -259 l137 -235 205 -191 c113 -105 213 -191 223 -191 17 0 55
34 387 339 200 184 202 168 -47 285 l-192 89 -67 151 c-82 188 -87 196 -122
195 -15 0 -160 -32 -322 -70z m369 -173 c34 -77 60 -140 58 -141 -14 -11 -430
-225 -431 -223 -16 23 -218 376 -219 382 -2 11 515 136 525 127 3 -3 34 -69
67 -145z m244 -248 c86 -40 156 -77 157 -81 1 -11 -399 -379 -409 -375 -11 4
-331 302 -331 308 0 6 401 218 416 219 5 1 81 -32 167 -71z"/>
<path d="M1048 2327 c-108 -29 -200 -55 -203 -59 -8 -8 164 -308 176 -308 14
0 353 161 366 173 9 9 0 39 -40 129 -47 106 -55 118 -77 117 -14 0 -114 -24
-222 -52z m256 -61 c53 -116 53 -112 4 -134 -24 -11 -96 -45 -160 -75 l-117
-56 -70 122 c-46 80 -67 123 -58 126 34 12 334 88 350 90 13 1 27 -19 51 -73z"/>
<path d="M1312 1961 c-78 -48 -150 -95 -159 -104 -15 -15 -15 -17 -1 -22 10
-4 72 28 159 81 159 96 181 113 173 125 -10 17 -30 8 -172 -80z"/>
<path d="M1383 1892 c-97 -68 -152 -112 -150 -122 2 -8 10 -14 17 -12 26 6
320 217 316 227 -7 24 -40 8 -183 -93z"/>
<path d="M1477 1857 c-31 -29 -57 -57 -57 -64 0 -12 60 -53 78 -53 17 0 132
104 132 120 0 17 -53 50 -78 50 -9 -1 -43 -24 -75 -53z"/>
<path d="M1420 2503 c0 -5 30 -75 66 -158 l67 -150 189 -89 c163 -77 192 -94
205 -121 13 -26 13 -35 1 -61 -7 -17 -102 -112 -213 -214 -110 -100 -216 -198
-235 -216 l-35 -34 181 0 c140 0 185 3 200 14 16 12 19 29 22 120 l4 106 90 0
c85 0 124 9 140 34 4 6 8 117 8 246 0 297 8 280 -136 280 -92 0 -104 2 -104
18 -4 187 -4 193 -29 213 -21 17 -41 19 -222 19 -109 0 -199 -3 -199 -7z"/>
<path d="M2934 2492 c-62 -22 -103 -54 -138 -107 -37 -55 -49 -108 -44 -190
10 -152 108 -250 263 -263 127 -10 237 48 289 152 54 107 35 258 -42 339 -72
76 -222 108 -328 69z m184 -132 c41 -25 62 -73 62 -141 0 -106 -55 -163 -149
-156 -47 3 -59 9 -87 39 -40 44 -52 108 -34 173 12 41 48 86 80 98 34 12 97 6
128 -13z"/>
<path d="M4457 2494 c-71 -22 -150 -102 -171 -173 -35 -121 -12 -228 68 -308
40 -40 64 -55 110 -68 163 -47 336 32 377 173 21 71 16 178 -11 235 -60 127
-221 188 -373 141z m181 -134 c41 -25 62 -73 62 -141 0 -97 -53 -159 -136
-159 -49 0 -102 32 -124 75 -18 38 -18 131 1 170 33 69 130 96 197 55z"/>
<path d="M3403 2492 l-43 -3 0 -270 0 -269 75 0 74 0 3 118 3 117 79 -117 80
-118 92 0 93 0 -106 140 -105 139 87 113 c49 62 95 121 103 131 14 16 10 17
-74 17 l-89 -1 -80 -112 -80 -112 -3 111 -3 112 -32 3 c-18 2 -51 3 -74 1z"/>
<path d="M2280 2328 c0 -185 -10 -216 -75 -244 l-35 -14 0 -85 0 -85 64 0 c59
0 65 2 68 23 3 22 6 22 161 25 l157 3 0 -26 c0 -24 2 -25 65 -25 l65 0 0 84 0
85 -32 3 -33 3 -3 208 -2 207 -200 0 -200 0 0 -162z m250 -108 l0 -150 -80 0
c-44 0 -80 2 -80 5 0 3 10 19 22 35 19 26 22 47 26 145 l5 115 53 0 54 0 0
-150z"/>
<path d="M3880 2430 l0 -59 58 -3 57 -3 3 -207 2 -208 75 0 75 0 0 210 0 210
60 0 60 0 0 60 0 60 -195 0 -195 0 0 -60z"/>
<path d="M4880 2220 l0 -270 75 0 75 0 0 90 0 90 68 0 c74 0 132 22 169 61 74
81 50 225 -47 276 -39 21 -56 23 -192 23 l-148 0 0 -270z m262 130 c23 -28 23
-52 1 -78 -18 -19 -75 -34 -100 -25 -14 5 -19 114 -5 127 14 15 86 -2 104 -24z"/>
<path d="M2625 1821 c-76 -35 -107 -88 -106 -183 0 -63 15 -100 58 -140 37
-35 73 -48 135 -48 62 0 130 30 158 71 31 43 45 124 31 176 -32 115 -165 175
-276 124z m146 -100 c62 -63 23 -181 -60 -181 -67 0 -106 70 -81 144 23 70 90
87 141 37z"/>
<path d="M4588 1831 c-85 -27 -127 -81 -135 -170 -13 -144 109 -241 253 -202
70 19 134 108 134 186 0 65 -45 142 -100 170 -35 18 -118 27 -152 16z m109
-96 c48 -33 49 -139 2 -181 -31 -28 -84 -24 -117 9 -23 23 -27 36 -27 81 0 44
5 59 24 80 29 30 83 35 118 11z"/>
<path d="M2170 1645 l0 -185 50 0 50 0 0 75 0 75 60 0 60 0 0 -75 0 -75 55 0
55 0 0 185 0 185 -55 0 -55 0 0 -65 0 -65 -60 0 -60 0 0 65 0 65 -50 0 -50 0
0 -185z"/>
<path d="M2860 1825 c0 -2 30 -61 66 -130 l66 -126 -21 -49 c-12 -27 -21 -51
-21 -54 0 -3 24 -6 54 -6 53 0 54 1 69 38 9 20 45 103 81 185 l65 147 -57 0
-58 0 -24 -70 c-13 -38 -27 -70 -31 -70 -3 0 -20 32 -38 70 l-31 70 -60 0
c-33 0 -60 -2 -60 -5z"/>
<path d="M3230 1785 l0 -45 40 0 40 0 0 -140 0 -140 50 0 49 0 3 138 3 137 38
3 c37 3 37 4 37 48 l0 44 -130 0 -130 0 0 -45z"/>
<path d="M3510 1645 l0 -185 100 0 c152 0 193 25 193 118 0 70 -58 111 -160
112 -28 0 -33 4 -33 25 0 25 1 25 85 25 l85 0 0 45 0 45 -135 0 -135 0 0 -185z
m174 -41 c22 -9 20 -51 -3 -64 -11 -5 -31 -10 -45 -10 -24 0 -26 4 -26 40 0
38 2 40 29 40 16 0 36 -3 45 -6z"/>
<path d="M3855 1704 c70 -132 71 -138 41 -207 l-17 -38 57 3 57 3 78 175 c43
96 78 178 78 183 1 4 -23 7 -53 7 l-54 0 -27 -70 c-15 -39 -30 -68 -35 -65 -4
3 -20 34 -36 70 l-28 65 -64 0 -63 0 66 -126z"/>
<path d="M4170 1645 l0 -185 50 0 49 0 3 73 3 72 49 -72 49 -73 64 0 64 0 -42
58 c-23 31 -55 74 -71 94 l-30 38 66 84 c36 47 66 87 66 90 0 3 -26 6 -57 6
l-58 0 -50 -73 -50 -72 -3 73 -3 72 -49 0 -50 0 0 -185z"/>
<path d="M4854 1817 c-2 -7 -3 -89 -2 -182 l3 -170 48 -3 47 -3 0 70 0 70 53
3 52 3 3 37 3 37 -53 3 c-49 3 -53 5 -56 30 -3 26 -2 27 55 30 l58 3 3 43 3
42 -106 0 c-77 0 -107 -3 -111 -13z"/>
<path d="M5090 1645 l0 -185 50 0 50 0 0 70 0 70 55 0 55 0 0 39 0 40 -52 3
c-49 3 -53 5 -56 30 -3 26 -2 27 55 30 l58 3 3 43 3 42 -110 0 -111 0 0 -185z"/>
</g>
</svg>
