<svg width="25" height="25" viewBox="0 0 25 25" fill="none" xmlns="http://www.w3.org/2000/svg">
<path d="M19.4536 11.587C19.3284 11.5354 19.2013 11.4857 19.0725 11.4382C18.8482 7.88258 16.59 5.847 12.7981 5.82617C12.781 5.82608 12.7639 5.82608 12.7467 5.82608C10.4787 5.82608 8.5924 6.65897 7.43141 8.17457L9.51681 9.40531C10.3841 8.27322 11.7453 8.03187 12.7477 8.03187C12.7593 8.03187 12.7709 8.03187 12.7824 8.03197C14.0309 8.03881 14.973 8.35112 15.5828 8.96016C16.0265 9.40355 16.3233 10.0163 16.4703 10.7896C15.3633 10.6277 14.1662 10.5779 12.8864 10.6411C9.28127 10.8197 6.96361 12.6286 7.11927 15.1422C7.19826 16.4172 7.93656 17.5141 9.19808 18.2306C10.2647 18.8363 11.6384 19.1326 13.0661 19.0655C14.9515 18.9766 16.4306 18.3577 17.4625 17.226C18.2462 16.3667 18.7418 15.253 18.9607 13.8497C19.8592 14.3163 20.5251 14.9302 20.8929 15.6682C21.5183 16.9228 21.5548 18.9844 19.5995 20.6651C17.8864 22.1375 15.8272 22.7745 12.7151 22.7941C9.26303 22.7721 6.65225 21.8197 4.95479 19.9632C3.36526 18.2247 2.54378 15.7138 2.51314 12.5C2.54378 9.28617 3.36526 6.77521 4.95479 5.03681C6.65225 3.18033 9.26299 2.22786 12.7151 2.20579C16.1922 2.22803 18.8485 3.18508 20.611 5.05052C21.4751 5.96531 22.1267 7.11573 22.5562 8.45707L25 7.89612C24.4794 6.24508 23.6601 4.82236 22.5453 3.64245C20.2859 1.25087 16.9814 0.0254099 12.7236 0H12.7066C8.45748 0.0253216 5.18998 1.25544 2.99489 3.65616C1.04155 5.7925 0.0339621 8.76507 0.000105942 12.4912L0 12.5L0.000105942 12.5088C0.0339621 16.2349 1.04155 19.2076 2.99489 21.3439C5.18998 23.7445 8.45748 24.9747 12.7066 25H12.7236C16.5013 24.9775 19.1641 24.1266 21.3577 22.241C24.2277 19.7742 24.1413 16.6822 23.1953 14.784C22.5167 13.4228 21.2228 12.3172 19.4536 11.587ZM12.9311 16.8629C11.3511 16.9395 9.70954 16.3293 9.6286 15.0224C9.5686 14.0534 10.4302 12.9721 13.0281 12.8433C13.3256 12.8286 13.6175 12.8214 13.9043 12.8214C14.848 12.8214 15.7308 12.9002 16.5334 13.0512C16.234 16.2676 14.4781 16.7898 12.9311 16.8629Z" fill="black"/>
</svg>
