<svg width="25" height="25" viewBox="0 0 25 25" fill="none" xmlns="http://www.w3.org/2000/svg">
<g clip-path="url(#clip0_63_7)">
<path d="M12.5522 0C15.882 0.00162595 19.0075 1.28788 21.3575 3.62236C23.7077 5.95684 25.0013 9.06028 25 12.3602C24.9973 19.1023 19.5238 24.6003 12.7579 24.7096L12.5524 24.7113H12.5473C10.496 24.7105 8.47986 24.2079 6.68291 23.2533L6.59884 23.2083L0 24.9256L1.76596 18.525C0.676762 16.6523 0.103613 14.5273 0.104495 12.3503C0.107269 5.54048 5.69128 0 12.5522 0ZM12.5565 2.08622C6.84968 2.08622 2.2084 6.69115 2.20613 12.3513C2.20538 14.2614 2.73585 16.1228 3.74119 17.7402L3.78793 17.8146L4.03398 18.2031L2.98877 21.9912L6.90451 20.9721L7.28229 21.1943C8.84555 22.1148 10.6339 22.609 12.4598 22.625L12.5482 22.6254H12.5524C18.2548 22.6254 22.896 18.0201 22.8984 12.3596C22.8994 9.6166 21.8243 7.03722 19.8709 5.09684C17.9175 3.15646 15.3199 2.08709 12.5565 2.08622ZM8.14535 6.64662C8.35258 6.64662 8.56031 6.6485 8.74144 6.65775C8.93241 6.66701 9.18879 6.58571 9.44114 7.18744C9.53794 7.41806 9.68531 7.7743 9.83603 8.13826L9.86836 8.21633C10.111 8.80207 10.3536 9.38602 10.4003 9.47877C10.4779 9.63311 10.5297 9.81359 10.4261 10.0193C10.3225 10.2255 10.2706 10.354 10.1151 10.5345C9.95959 10.7145 9.78854 10.9369 9.64862 11.0751C9.64102 11.0826 9.63341 11.0901 9.62582 11.0977L9.60317 11.1206C9.46447 11.263 9.34843 11.4261 9.51224 11.7047C9.69362 12.0137 10.3178 13.0246 11.2424 13.8428C12.4304 14.8942 13.4326 15.2201 13.7436 15.3747C14.0546 15.5292 14.2361 15.5034 14.4175 15.2972C14.599 15.0914 15.1949 14.3963 15.4023 14.0872C15.6097 13.7783 15.817 13.8299 16.1021 13.9329C16.2376 13.9818 16.6543 14.1762 17.0877 14.3833L17.2224 14.4478C17.6563 14.6561 18.0795 14.8634 18.2273 14.9368C18.5384 15.0914 18.7458 15.1686 18.8234 15.2972C18.9012 15.4261 18.9012 16.0438 18.642 16.7648C18.3829 17.4857 17.1403 18.1437 16.5427 18.2324C16.0068 18.3117 15.3288 18.3448 14.5837 18.11C14.1321 17.9677 13.5526 17.7779 12.8106 17.4599C9.6906 16.1233 7.65287 13.0058 7.49745 12.8001L7.48687 12.7861C7.29733 12.5346 6.22737 11.0957 6.22737 9.60735C6.22737 8.08846 7.03094 7.34178 7.31594 7.03285C7.60107 6.72417 7.938 6.64662 8.14535 6.64662Z" fill="black"/>
</g>
<defs>
<clipPath id="clip0_63_7">
<rect width="25" height="25" fill="white"/>
</clipPath>
</defs>
</svg>
